<svg width="500" height="500" viewBox="0 0 500 500" fill="none" xmlns="http://www.w3.org/2000/svg">
<circle cx="250" cy="250" r="250" fill="#FFA5CC"/>
<circle cx="250" cy="250" r="237.5" stroke="#EB5E8A" stroke-width="25"/>
<g clip-path="url(#clip0_15_9)">
<path d="M259.196 405H239.803C224.119 405 211.357 392.239 211.357 376.555V369.994C204.689 367.863 198.21 365.174 191.986 361.953L187.337 366.603C176.076 377.877 158.037 377.547 147.103 366.598L133.397 352.892C122.444 341.951 122.129 323.919 133.4 312.659L138.046 308.013C134.825 301.789 132.137 295.312 130.006 288.642H123.446C107.761 288.642 95 275.881 95 260.197V240.803C95 225.119 107.761 212.358 123.446 212.358H130.006C132.137 205.689 134.826 199.211 138.047 192.987L133.397 188.338C122.132 177.085 122.443 159.05 133.401 148.105L147.109 134.397C158.068 123.423 176.102 123.149 187.342 134.401L191.987 139.046C198.211 135.826 204.69 133.137 211.358 131.006V124.446C211.358 108.761 224.119 96 239.804 96H259.197C274.881 96 287.642 108.761 287.642 124.446V131.006C294.31 133.137 300.789 135.826 307.013 139.047L311.663 134.397C322.924 123.123 340.962 123.453 351.896 134.402L365.603 148.108C376.556 159.049 376.871 177.081 365.599 188.341L360.953 192.987C364.174 199.211 366.863 205.688 368.994 212.358H375.554C391.239 212.358 404 225.119 404 240.803V260.197C404 275.881 391.239 288.642 375.554 288.642H368.994C366.863 295.311 364.174 301.789 360.953 308.013L365.603 312.663C376.868 323.916 376.557 341.95 365.599 352.896L351.891 366.603C340.932 377.577 322.898 377.851 311.658 366.6L307.013 361.954C300.789 365.175 294.31 367.864 287.642 369.995V376.556C287.642 392.239 274.881 405 259.196 405ZM195.013 342.94C203.659 348.054 212.966 351.917 222.673 354.422C226.67 355.454 229.463 359.059 229.463 363.188V376.555C229.463 382.256 234.103 386.895 239.804 386.895H259.197C264.898 386.895 269.537 382.256 269.537 376.555V363.188C269.537 359.059 272.33 355.454 276.328 354.422C286.035 351.917 295.341 348.054 303.988 342.94C307.546 340.837 312.075 341.409 314.998 344.332L324.466 353.8C328.548 357.887 335.103 357.792 339.085 353.804L352.801 340.089C356.774 336.121 356.906 329.565 352.805 325.469L343.333 315.997C340.411 313.074 339.838 308.544 341.942 304.987C347.055 296.341 350.918 287.035 353.423 277.327C354.455 273.33 358.06 270.537 362.188 270.537H375.555C381.256 270.537 385.895 265.899 385.895 260.197V240.804C385.895 235.103 381.256 230.464 375.555 230.464H362.188C358.06 230.464 354.455 227.671 353.423 223.674C350.918 213.966 347.055 204.66 341.942 196.014C339.838 192.457 340.411 187.927 343.333 185.005L352.801 175.536C356.894 171.448 356.788 164.894 352.805 160.916L339.09 147.201C335.115 143.22 328.558 143.104 324.47 147.197L314.998 156.67C312.076 159.592 307.545 160.165 303.988 158.061C295.342 152.947 286.036 149.084 276.329 146.579C272.331 145.547 269.538 141.942 269.538 137.813V124.446C269.538 118.744 264.899 114.105 259.197 114.105H239.805C234.103 114.105 229.464 118.744 229.464 124.446V137.812C229.464 141.941 226.671 145.546 222.673 146.578C212.966 149.083 203.66 152.946 195.013 158.06C191.455 160.163 186.926 159.591 184.003 156.668L174.536 147.2C170.453 143.113 163.897 143.208 159.916 147.196L146.2 160.911C142.228 164.879 142.095 171.435 146.196 175.531L155.668 185.003C158.591 187.926 159.163 192.456 157.06 196.013C151.946 204.659 148.083 213.965 145.578 223.673C144.546 227.67 140.941 230.463 136.813 230.463H123.446C117.745 230.463 113.105 235.102 113.105 240.803V260.197C113.105 265.898 117.745 270.537 123.446 270.537H136.812C140.941 270.537 144.546 273.33 145.578 277.327C148.083 287.034 151.946 296.341 157.059 304.987C159.162 308.544 158.59 313.074 155.668 315.996L146.199 325.464C142.106 329.553 142.213 336.107 146.196 340.085L159.911 353.8C163.886 357.78 170.442 357.897 174.531 353.803L184.002 344.331C186.156 342.178 190.635 340.351 195.013 342.94Z" fill="#EB5E8A"/>
<path d="M249.5 317.732C212.428 317.732 182.268 287.572 182.268 250.5C182.268 213.428 212.428 183.268 249.5 183.268C286.572 183.268 316.732 213.428 316.732 250.5C316.732 287.572 286.572 317.732 249.5 317.732ZM249.5 201.374C222.411 201.374 200.374 223.412 200.374 250.5C200.374 277.588 222.412 299.626 249.5 299.626C276.588 299.626 298.626 277.588 298.626 250.5C298.626 223.412 276.589 201.374 249.5 201.374Z" fill="#EB5E8A"/>
</g>
<defs>
<clipPath id="clip0_15_9">
<rect width="309" height="309" fill="white" transform="translate(95 96)"/>
</clipPath>
</defs>
</svg>
